<svg
  fill="none"
  height="24"
  viewBox="0 0 24 24"
  width="24"
  xmlns="http://www.w3.org/2000/svg"
>
  <path
    d="M12 2C17.5228 2 22 6.47715 22 12C22 17.5228 17.5228 22 12 22C6.47715 22 2 17.5228 2 12C2 6.47715 6.47715 2 12 2ZM15.947 8.053C15.6541 7.76011 15.1792 7.76011 14.8863 8.053L12 10.9392L9.11366 8.053L9.03685 7.98588C8.74288 7.76214 8.32148 7.78451 8.053 8.053L7.98588 8.1298C7.76214 8.42377 7.78451 8.84517 8.053 9.11366L10.9392 12L8.053 14.8863C7.76011 15.1792 7.76011 15.6541 8.053 15.947C8.34589 16.2399 8.82077 16.2399 9.11366 15.947L12 13.0608L14.8863 15.947L14.9631 16.0141C15.2571 16.2379 15.6785 16.2155 15.947 15.947L16.0141 15.8702C16.2379 15.5762 16.2155 15.1548 15.947 14.8863L13.0608 12L15.947 9.11366C16.2399 8.82077 16.2399 8.34589 15.947 8.053Z"
    fill="#f3f3f3"
  />
</svg>
